<svg width="92" height="72" viewBox="0 0 92 72" fill="none" xmlns="http://www.w3.org/2000/svg">
<path d="M38.5 0C29.0945 0 22 6.56452 22 13.6169C22 21.379 30.0081 27.2339 38.5 27.2339C47.9055 27.2339 55 20.625 55 13.6169C55 5.85484 47.0456 0 38.5 0ZM38.5 23.2419C31.9967 23.2419 26.8371 18.7177 26.8371 13.6169C26.8371 8.20564 32.3192 3.99194 38.5 3.99194C45.057 3.99194 50.2166 8.51613 50.2166 13.6169C50.2166 18.9839 44.7345 23.2419 38.5 23.2419ZM28.6107 33H48.443V29.0081H28.6107V33Z" fill="#F0F0F0"/>
<path d="M73.3776 1V4.23706L65.006 1H61V34H65.571V5.72071L73.3776 8.73297V34H78V1H73.3776Z" fill="#F0F0F0"/>
<path d="M38.3594 40H34.0386L26 71.5761H30.6222C31.2251 69.3391 31.9787 66.6289 32.5314 64.2629L36.199 65.4674L39.7159 64.2629L41.5748 71.5761H46.1468L38.3594 40ZM36.199 61.3375C35.2444 61.0364 34.3903 60.6492 33.486 60.3481C34.4406 56.6054 35.2444 53.5511 36.199 49.9374C37.3043 54.4545 37.7062 56.1322 38.7613 60.4341L36.199 61.3375Z" fill="#F0F0F0"/>
<path d="M64.9377 40C63.129 41.0755 61.3204 42.28 59.4614 43.3985L53.9851 40H49.9658V71.5761H54.4875V45.1623L59.4112 48.1306L64.4353 45.1623V71.5761H68.957V40H64.9377Z" fill="#F0F0F0"/>
<path d="M78.0002 44.7751V40H73.4785V44.7751H78.0002ZM73.4785 46.797V71.5761H78.0002V46.797H73.4785Z" fill="#F0F0F0"/>
<path d="M86 1V8.70053H89.8097L91.7457 5.27807V1H86Z" fill="#F0F0F0"/>
<path d="M12.3916 1V21.951C11.009 22.4455 9.88253 22.8052 8.55121 23.2548C7.11747 22.7602 5.99096 22.4455 4.55723 21.951V1H0V34H4.55723V26.267L8.55121 27.6158L12.3916 26.267V34H17V1H12.3916Z" fill="#F0F0F0"/>
</svg>
